<svg width="138" height="138" viewBox="0 0 138 138" fill="none" xmlns="http://www.w3.org/2000/svg">
<circle cx="69" cy="69" r="69" fill="black"/>
<path d="M81.4472 108.092C90.5856 108.092 101.394 97.773 105.075 91.0951L96.0636 87.3152C93.1444 92.3551 85.3818 97.1308 83.8587 97.1308C82.2088 97.1308 82.4626 95.6188 82.9703 93.0989L87.6664 71.3014C90.3317 58.8277 83.478 51.1419 73.0705 51.1419C63.6783 51.1419 58.2207 56.9378 53.017 62.3557L60.1245 29.0925H38.1672L35.8826 40.1802H41.721L45.2748 44.7161L32.075 106.329H43.6248L50.0978 75.9633C55.9361 68.0255 62.2822 62.3557 68.8821 62.3557C77.3858 62.3557 76.4973 69.7895 75.1012 76.0893L71.4205 93.4769C69.7705 101.289 72.3089 108.092 81.4472 108.092Z" fill="white"/>
</svg>
