<svg width="298" height="127" viewBox="0 0 298 127" fill="none" xmlns="http://www.w3.org/2000/svg">
<path fill-rule="evenodd" clip-rule="evenodd" d="M110.725 97.185C133.51 97.185 150.56 79.515 150.56 60.14C150.56 40.455 135.835 27.125 114.755 27.125C91.97 27.125 74.92 44.795 74.92 64.17C74.92 83.855 89.645 97.185 110.725 97.185ZM110.725 83.39C98.325 83.39 90.73 75.64 90.73 64.17C90.73 50.685 100.34 40.92 114.755 40.92C127.155 40.92 134.75 48.67 134.75 60.14C134.75 73.625 125.14 83.39 110.725 83.39ZM213.2 90.985C208.55 112.685 197.855 126.325 174.76 126.325C157.245 126.325 144.38 116.56 144.38 105.245C144.225 97.96 148.875 92.07 155.85 92.07C161.585 92.07 164.84 96.1 164.84 101.06C164.84 104.78 162.05 107.57 160.035 108.19C163.135 112.375 167.94 114.545 174.76 114.545C188.865 114.545 196.925 104.78 200.18 90.055L201.885 81.995C201.462 82.371 201.034 82.7568 200.598 83.1488C195.293 87.9272 188.972 93.62 178.945 93.62C165.615 93.62 156.16 83.08 159.57 67.27L163.6 48.515L159.26 42.935H152.13L155.075 29.295H181.735L174.605 62.93C172.28 73.47 174.45 79.825 182.2 79.825C190.725 79.825 197.39 75.02 204.52 65.255L212.115 29.295H226.22L213.2 90.985Z" fill="#ffffff"/>
<path d="M60.295 97.185C71.455 97.185 84.655 84.49 89.15 76.275L78.145 71.625C74.58 77.825 65.1 83.7 63.24 83.7C61.225 83.7 61.535 81.84 62.155 78.74L67.89 51.925C71.145 36.58 62.775 27.125 50.065 27.125C38.595 27.125 31.93 34.255 25.575 40.92L34.255 0H7.44L4.65 13.64H11.78L16.12 19.22L0 95.015H14.105L22.01 57.66C29.14 47.895 36.89 40.92 44.95 40.92C55.335 40.92 54.25 50.065 52.545 57.815L48.05 79.205C46.035 88.815 49.135 97.185 60.295 97.185Z" fill="#ffffff"/>
<path d="M261.57 97.185C277.69 97.185 289.78 87.11 297.065 74.71L286.215 67.115C279.24 77.345 273.35 83.08 263.275 83.08C252.89 83.08 249.48 76.725 252.115 64.635L255.525 48.515L262.19 42.935H290.71L293.655 29.295H259.71L264.825 5.42499H250.255L245.14 29.295H225.765L222.82 42.935H236.615L241.11 48.515L237.235 66.65C233.205 85.25 244.52 97.185 261.57 97.185Z" fill="#ffffff"/>
</svg>
